<svg width="37" height="37" viewBox="0 0 37 37" fill="none" xmlns="http://www.w3.org/2000/svg">
<path d="M18.9551 5.50225C11.957 5.50225 6.15865 11.3013 6.15865 18.4C6.15865 25.4988 11.957 31.2978 19.0551 31.2978C26.1531 31.2978 31.8515 25.4988 31.8515 18.4C31.8515 11.3013 26.0531 5.50225 18.9551 5.50225ZM18.9551 35.3971C9.5577 35.3971 1.95981 27.7984 1.95981 18.4C1.95981 9.00165 9.5577 1.40295 18.9551 1.40295C28.3525 1.40295 35.9504 9.00165 35.9504 18.4C35.9504 27.7984 28.3525 35.3971 18.9551 35.3971Z" fill="white"/>
<path d="M36.0502 18.4V18.7999C36.0502 18.8999 36.0502 19.0998 36.0502 19.1998C36.0502 19.4998 35.9503 19.7997 35.9503 20.0997C35.8503 20.6996 35.7503 21.2995 35.5504 21.7994C35.2505 22.8992 34.7506 24.099 34.0508 25.0988C32.7512 27.0985 31.0516 28.7982 29.0522 29.898C28.0525 30.4979 27.0527 30.9978 25.953 31.2977C24.8533 31.6977 23.7537 31.8976 22.554 31.9976C22.454 31.9976 22.2541 31.9976 22.1541 31.9976H21.9542H21.7542C21.6542 31.9976 21.4543 31.9976 21.3543 31.9976C21.2543 31.9976 21.0544 31.9976 20.9544 31.9976C20.3546 31.9976 19.8547 31.8976 19.2549 31.8976C18.0552 31.6977 16.8556 31.4977 15.8558 31.0978C14.7561 30.6979 13.7564 30.098 12.8567 29.3981C11.9569 28.6982 11.1571 27.7983 10.4573 26.7985C9.8575 25.7987 9.35764 24.7989 9.05772 23.6991C8.75781 22.5992 8.55786 21.4994 8.55786 20.3996C8.55786 19.7997 8.55786 19.2998 8.65783 18.6999C8.65783 18.4 8.75781 18.2 8.75781 17.9001C8.75781 17.8001 8.75781 17.6001 8.85778 17.5001C8.85778 17.3002 8.95775 17.2002 8.95775 17.1002C9.1577 16.0004 9.65756 14.9006 10.2574 13.9007C10.8572 12.9009 11.657 12.101 12.5568 11.4012C13.4565 10.7013 14.4562 10.1014 15.456 9.70146C16.5556 9.30153 17.6553 9.10156 18.855 9.10156C19.1549 9.10156 19.4548 9.10156 19.7548 9.20154C19.8547 9.20154 20.0547 9.20155 20.1546 9.30153C20.2546 9.30153 20.4546 9.30153 20.5545 9.40151C21.0544 9.50149 21.6542 9.60148 22.1541 9.80144C23.1538 10.2014 24.1535 10.7013 25.0533 11.4012C25.953 12.101 26.6528 13.0009 27.1527 14.0007C27.6526 15.0005 27.9525 16.1004 28.0525 17.2002C28.0525 17.8001 28.0525 18.3 28.0525 18.8999C27.9525 19.4998 27.8525 19.9997 27.6526 20.4996C27.2527 21.5994 26.5529 22.4993 25.7531 23.1991C24.9533 23.899 23.9536 24.3989 22.8539 24.6989C22.354 24.7989 21.7542 24.8988 21.2543 24.8988C20.7545 24.8988 20.1546 24.7989 19.6548 24.6989C18.5551 24.3989 17.5554 23.899 16.8556 22.9992C16.1558 22.1993 15.6559 21.1995 15.5559 20.0997C15.456 19.5998 15.456 18.9999 15.5559 18.4999C15.6559 18 15.8558 17.5001 16.1558 17.0002C16.4557 16.5003 16.8556 16.2003 17.3554 15.9004C17.8553 15.6004 18.3551 15.5005 18.855 15.4005C19.3549 15.4005 19.9547 15.4005 20.4546 15.6004C20.9544 15.8004 21.4543 16.1004 21.6542 16.6003C21.9542 17.1002 22.0541 17.6001 21.9542 18.1C21.9542 18.4 21.8542 18.5999 21.7542 18.8999C21.6542 19.0998 21.4543 19.3998 21.2543 19.4998C20.8545 19.7997 20.2546 19.9997 19.7548 19.7997C19.4548 19.6997 19.2549 19.5998 19.1549 19.3998C19.055 19.1998 18.955 18.8999 18.955 18.6999C18.955 18.9999 19.055 19.1998 19.1549 19.3998C19.2549 19.5998 19.5548 19.6997 19.7548 19.7997C20.2546 19.8997 20.7545 19.6997 21.1544 19.3998C21.3543 19.1998 21.4543 18.9999 21.5543 18.7999C21.6542 18.5999 21.6542 18.3 21.6542 18.1C21.6542 17.6001 21.5543 17.1002 21.2543 16.7003C20.9544 16.3003 20.5545 16.0004 20.1546 15.9004C19.6548 15.7004 19.1549 15.7004 18.755 15.7004C18.2552 15.7004 17.8553 15.9004 17.4554 16.2003C17.0555 16.5003 16.7556 16.8002 16.4557 17.2002C16.2557 17.6001 16.0558 18.1 15.9558 18.4999C15.8558 18.9999 15.8558 19.3998 15.9558 19.8997C16.1558 20.7996 16.5556 21.6994 17.2555 22.3993C17.9553 23.0992 18.755 23.4991 19.6548 23.6991C20.1546 23.799 20.5545 23.799 21.0544 23.799C21.5543 23.799 21.9542 23.6991 22.454 23.5991C23.3538 23.2991 24.1535 22.7992 24.8533 22.1993C25.5532 21.5994 26.053 20.7996 26.3529 19.8997C26.4529 19.4998 26.5529 18.9999 26.6528 18.5999C26.6528 18.2 26.6528 17.7001 26.6528 17.2002C26.5529 16.3003 26.253 15.4005 25.8531 14.6006C25.3532 13.8008 24.7534 13.1009 24.0536 12.601C23.3538 12.101 22.454 11.6011 21.6542 11.4012C21.2543 11.3012 20.7545 11.2012 20.2546 11.1012C20.1546 11.1012 20.0547 11.1012 19.9547 11.1012C19.8547 11.1012 19.7548 11.1012 19.5548 11.1012C19.3549 11.1012 19.1549 11.1012 18.855 11.1012C17.9553 11.1012 17.0555 11.3012 16.2557 11.7011C14.5562 12.401 13.1566 13.7008 12.2568 15.2005C11.8569 16.0004 11.4571 16.8002 11.3571 17.6001C11.3571 17.7001 11.3571 17.8001 11.3571 17.9001C11.3571 18 11.3571 18.1 11.3571 18.2C11.3571 18.4 11.3571 18.6999 11.2571 18.8999C11.2571 19.3998 11.2571 19.7997 11.2571 20.2996C11.3571 22.0993 11.9569 23.899 12.9566 25.2988C13.4565 25.9987 14.0563 26.5986 14.7561 27.0985C15.456 27.5984 16.2557 27.9983 17.0555 28.2983C17.8553 28.5982 18.755 28.7982 19.6548 28.7982C20.1546 28.7982 20.5545 28.8982 21.0544 28.8982C21.1544 28.8982 21.2543 28.8982 21.3543 28.8982H21.6542H21.8542H22.0541C22.1541 28.8982 22.2541 28.8982 22.354 28.8982C24.0536 28.6982 25.7531 27.9983 27.2527 27.0985C28.7523 26.0986 29.9519 24.8988 30.8517 23.3991C31.2516 22.6992 31.5515 21.8994 31.7514 21.0995C31.8514 20.6996 31.9514 20.2996 31.9514 19.8997C31.9514 19.6997 31.9514 19.4998 31.9514 19.2998C31.9514 19.1998 31.9514 19.0998 31.9514 18.9999V18.6999L36.0502 18.4Z" fill="white"/>
<path d="M34.4507 18.3001C34.4507 19.3999 34.2507 20.3997 33.9508 21.3995C33.6509 22.3994 33.251 23.3992 32.6512 24.299C31.5515 26.0987 29.9519 27.5985 28.1524 28.6983C27.2527 29.1982 26.3529 29.6981 25.3532 29.9981C24.3535 30.298 23.3538 30.598 22.2541 30.6979C21.7542 30.6979 21.2543 30.6979 20.6545 30.6979C20.1546 30.6979 19.6548 30.598 19.055 30.598C18.0552 30.498 16.9555 30.198 16.0558 29.8981C15.0561 29.4981 14.1563 28.9982 13.3565 28.3983C12.5568 27.7984 11.757 26.9986 11.2571 26.0987C10.6573 25.1989 10.2574 24.299 9.95747 23.2992C9.65756 22.2994 9.45761 21.2996 9.45761 20.1997C9.45761 19.6998 9.45761 19.1999 9.45761 18.6C9.45761 18.3001 9.45761 18.1001 9.55758 17.8002C9.55758 17.7002 9.55758 17.5002 9.65756 17.4002C9.65756 17.3002 9.65755 17.1003 9.75753 17.0003C9.95747 16.0005 10.3574 15.0006 10.9572 14.1008C12.0569 12.3011 13.7564 11.0013 15.6559 10.2015C16.6556 9.80153 17.6553 9.60156 18.6551 9.60156C18.955 9.60156 19.1549 9.60156 19.4548 9.60156C19.7548 9.60156 19.9547 9.70154 20.2546 9.70154C20.7545 9.80153 21.2543 9.90151 21.7542 10.1015C22.7539 10.4014 23.6537 10.9013 24.4535 11.6012C25.2532 12.2011 25.953 13.101 26.4529 14.0008C26.9528 14.9007 27.2527 15.9005 27.3527 17.0003C27.3527 17.5002 27.4526 18.0001 27.3527 18.6C27.2527 19.0999 27.1527 19.5998 27.0527 20.0998C26.6528 21.0996 26.053 21.9994 25.3532 22.6993C24.5534 23.3992 23.6537 23.8991 22.654 24.1991C22.1541 24.299 21.6542 24.399 21.1544 24.399C20.6545 24.399 20.1546 24.399 19.6548 24.1991C18.6551 23.9991 17.6553 23.3992 16.9555 22.6993C16.2557 21.8995 15.7559 20.9996 15.6559 19.8998C15.5559 19.3999 15.5559 18.9 15.6559 18.3001C15.7559 17.8002 15.9558 17.3002 16.2557 16.8003C16.5556 16.4004 16.9555 16.0005 17.3554 15.7005C17.8553 15.4006 18.3551 15.3006 18.855 15.2006C19.3549 15.2006 19.8547 15.2006 20.3546 15.4006C20.8545 15.6005 21.3543 15.9005 21.5543 16.3004C21.8542 16.8003 21.9541 17.3002 21.9541 17.8002C21.9541 18.1001 21.9541 18.3001 21.8542 18.6C21.7542 18.9 21.5543 19.0999 21.3543 19.1999C20.9544 19.4999 20.3546 19.6998 19.8547 19.5998C19.5548 19.4999 19.3549 19.3999 19.1549 19.0999C18.955 18.9 18.955 18.6 18.955 18.3001H19.1549C19.1549 18.5 19.1549 18.8 19.3549 18.9999C19.4548 19.1999 19.6548 19.2999 19.9547 19.3999C20.4546 19.4999 20.9544 19.3999 21.2543 19.0999C21.4543 18.9 21.5543 18.8 21.6542 18.5C21.7542 18.3001 21.7542 18.0001 21.7542 17.8002C21.7542 17.3002 21.6542 16.8003 21.4543 16.4004C21.1544 16.0005 20.7545 15.7005 20.3546 15.5005C19.8547 15.3006 19.3549 15.3006 18.855 15.3006C18.3551 15.3006 17.8553 15.5005 17.4554 15.7005C17.0555 15.9005 16.6556 16.3004 16.4557 16.7003C16.1558 17.1003 16.0558 17.6002 15.9558 18.1001C15.8558 18.6 15.8558 19.0999 15.9558 19.5998C16.1558 20.5997 16.5556 21.4995 17.2554 22.1994C17.9553 22.8993 18.855 23.3992 19.8547 23.5992C20.3546 23.6991 20.8545 23.7991 21.3543 23.6991C21.8542 23.6991 22.354 23.5992 22.8539 23.4992C23.8536 23.1992 24.6534 22.6993 25.4532 22.0994C26.153 21.3995 26.7528 20.5997 27.0527 19.6998C27.2527 19.1999 27.3527 18.7 27.3527 18.3001C27.3527 17.8002 27.3527 17.3002 27.3527 16.8003C27.2527 15.8005 26.9528 14.8007 26.4529 14.0008C25.953 13.101 25.3532 12.4011 24.5534 11.7012C23.7536 11.1013 22.8539 10.6014 21.9541 10.3014C21.4543 10.1015 20.9544 10.0015 20.4546 9.90151C20.2546 9.90151 19.9547 9.80153 19.7548 9.80153C19.5548 9.80153 19.2549 9.80153 19.055 9.80153C18.0552 9.80153 17.0555 10.0015 16.1558 10.4014C14.3563 11.1013 12.7567 12.5011 11.657 14.2008C11.1571 15.0006 10.7573 16.0005 10.5573 16.9003C10.5573 17.0003 10.5573 17.1003 10.4573 17.3002C10.4573 17.4002 10.4573 17.5002 10.4573 17.7002C10.4573 17.9001 10.3574 18.2001 10.3574 18.4001C10.3574 18.9 10.3574 19.3999 10.3574 19.8998C10.3574 20.8996 10.5573 21.8994 10.8572 22.7993C11.1571 23.6991 11.557 24.599 12.1569 25.4988C12.7567 26.2987 13.3565 26.9986 14.1563 27.5985C14.9561 28.1984 15.8558 28.6983 16.7556 28.9982C17.6553 29.2982 18.6551 29.4981 19.6548 29.6981C20.1546 29.7981 20.6545 29.7981 21.1544 29.7981C21.6542 29.7981 22.1541 29.7981 22.654 29.7981C23.6537 29.6981 24.5534 29.4981 25.5532 29.1982C26.5529 28.8982 27.3527 28.3983 28.2524 27.8984C29.9519 26.8986 31.3515 25.3988 32.3513 23.6991C32.8511 22.8993 33.251 21.9994 33.451 20.9996C33.6509 20.0998 33.8509 19.0999 33.8509 18.1001L34.4507 18.3001Z" fill="white"/>
<path d="M35.8503 18.3V18.6999C35.8503 18.7999 35.8503 18.9999 35.8503 19.0998C35.8503 19.3998 35.7503 19.6997 35.7503 19.9997C35.6503 20.5996 35.5504 21.1995 35.3504 21.6994C35.0505 22.7992 34.5506 23.899 33.8508 24.8988C33.251 25.8987 32.4512 26.7985 31.6514 27.5984C30.8517 28.3982 29.8519 29.0981 28.9522 29.598C28.0524 30.098 26.9527 30.5979 25.853 30.9978C24.7534 31.2978 23.6537 31.5977 22.554 31.5977C22.454 31.5977 22.254 31.5977 22.1541 31.5977H21.9541H21.7542H21.5542H21.3543C21.2543 31.5977 21.0544 31.5977 20.9544 31.5977C20.4545 31.5977 19.8547 31.4977 19.3548 31.3977C18.2552 31.1978 17.1555 30.9978 16.1557 30.5979C15.156 30.1979 14.0563 29.598 13.2565 28.8982C12.3568 28.1983 11.557 27.2984 10.9572 26.3986C10.3573 25.3988 9.85748 24.3989 9.55756 23.2991C9.25765 22.1993 9.0577 21.0995 9.0577 19.9997C9.0577 19.4998 9.0577 18.8999 9.15767 18.4C8.85776 18.3 8.85776 18 8.85776 17.7001C8.85776 17.6001 8.85776 17.4001 8.95773 17.3002C8.95773 17.2002 9.0577 17.0002 9.0577 16.9002C9.25765 15.8004 9.75751 14.7006 10.3573 13.8008C10.9572 12.9009 11.757 12.0011 12.5567 11.3012C13.4565 10.6013 14.3562 10.1014 15.4559 9.70146C16.4557 9.30153 17.5553 9.10156 18.755 9.10156C18.855 9.10156 19.0549 9.10156 19.1549 9.10156C19.2549 9.10156 19.4548 9.10156 19.5548 9.10156C19.8547 9.10156 20.0547 9.20154 20.3546 9.20154C20.8544 9.40151 21.3543 9.60148 21.8542 9.70146C22.8539 10.1014 23.8536 10.6013 24.7534 11.3012C25.6531 12.0011 26.3529 12.9009 26.8528 13.8008C27.3526 14.8006 27.6525 15.8004 27.7525 16.9002C27.7525 17.2002 27.7525 17.4001 27.7525 17.7001V17.9001C27.7525 18 27.7525 18 27.7525 18.1C27.7525 18.2 27.7525 18.4 27.7525 18.4999C27.6525 18.9999 27.5526 19.5998 27.3526 20.0997C26.9527 21.0995 26.3529 22.0993 25.4532 22.7992C24.6534 23.4991 23.6537 24.099 22.6539 24.299C22.1541 24.3989 21.5542 24.4989 21.0544 24.4989C20.5545 24.4989 19.9547 24.3989 19.4548 24.299C18.955 24.199 18.3551 23.999 17.9552 23.6991C17.5553 23.3991 17.0555 23.0992 16.6556 22.6992C15.9558 21.8994 15.4559 20.8995 15.256 19.7997C15.156 19.2998 15.156 18.6999 15.256 18.1C15.356 17.6001 15.5559 17.0002 15.8558 16.6003C16.1557 16.1004 16.5556 15.7004 17.0555 15.4005C17.5553 15.1005 18.0552 14.9006 18.655 14.9006C18.955 14.9006 19.2549 14.9006 19.4548 14.9006C19.7547 14.9006 20.0547 15.0005 20.2546 15.1005C20.5545 15.2005 20.7545 15.3005 21.0544 15.5005C21.2543 15.7004 21.5542 15.9004 21.6542 16.2003C21.8542 16.5003 21.9541 16.7003 21.9541 17.0002C22.0541 17.3002 22.0541 17.6001 22.0541 17.9001C22.0541 18 22.0541 18 22.0541 18.1V18.2V18.3V18.4V18.5999C22.0541 18.6999 22.0541 18.7999 21.9541 18.7999C21.8542 19.0998 21.6542 19.3998 21.3543 19.5998C21.1544 19.7997 20.8544 19.8997 20.5545 19.9997C20.2546 20.0997 19.9547 20.0997 19.6548 19.9997C19.4548 19.9997 19.3548 19.8997 19.1549 19.7997C19.0549 19.6997 18.855 19.5998 18.755 19.3998C18.655 19.2998 18.5551 19.0998 18.5551 18.8999C18.5551 18.6999 18.4551 18.5999 18.5551 18.4C18.5551 18.2 18.755 18 18.955 18C19.1549 18 19.4548 18.2 19.3548 18.4C19.3548 18.5999 19.4548 18.7999 19.4548 18.8999C19.5548 18.9999 19.6548 19.0998 19.8547 19.0998C20.1546 19.1998 20.6545 19.0998 20.9544 18.7999C21.0544 18.6999 21.2543 18.4999 21.2543 18.4V18.3C21.2543 18.2 21.2543 18.2 21.2543 18.2V18.1C21.2543 18 21.2543 18 21.2543 17.9001C21.2543 17.5001 21.1544 17.0002 20.9544 16.7003C20.7545 16.4003 20.3546 16.1004 19.9547 16.0004C19.7547 15.9004 19.5548 15.9004 19.3548 15.8004C19.1549 15.8004 18.855 15.8004 18.655 15.8004C18.2552 15.8004 17.7553 16.0004 17.3554 16.2003C16.9555 16.4003 16.6556 16.7003 16.4557 17.1002C16.2557 17.5001 16.0558 17.9001 15.9558 18.4C15.8558 18.7999 15.8558 19.2998 15.9558 19.7997C16.0558 20.6996 16.5556 21.5994 17.1555 22.1993C17.7553 22.8992 18.655 23.2991 19.5548 23.4991C20.0547 23.5991 20.4545 23.5991 20.9544 23.5991C21.4543 23.5991 21.8542 23.4991 22.354 23.3991C23.2538 23.0992 24.0535 22.6992 24.7534 21.9993C25.4532 21.3995 25.953 20.5996 26.2529 19.6997C26.3529 19.2998 26.4529 18.7999 26.5529 18.4C26.5529 18.3 26.5529 18.2 26.5529 18.1V17.9001V17.7001C26.5529 17.5001 26.5529 17.2002 26.5529 17.0002C26.4529 16.1004 26.153 15.2005 25.7531 14.4007C25.3532 13.6008 24.6534 12.9009 23.9536 12.301C23.2538 11.7011 22.354 11.3012 21.4543 11.0012C21.0544 10.9013 20.5545 10.8013 20.0547 10.7013C19.8547 10.7013 19.5548 10.6013 19.3548 10.6013C19.2549 10.6013 19.1549 10.6013 19.0549 10.6013C18.955 10.6013 18.855 10.6013 18.755 10.6013C17.8553 10.6013 16.9555 10.8013 16.0558 11.2012C14.3562 11.9011 12.8566 13.2009 11.9569 14.7006C11.457 15.5005 11.1571 16.3003 11.0571 17.2002C11.0571 17.3002 11.0571 17.4001 11.0571 17.5001C11.0571 17.6001 11.0571 17.7001 11.0571 17.9001C11.0571 18.1 11.0571 18.4 10.9572 18.5999C10.9572 19.0998 10.9572 19.4998 10.9572 19.9997C11.0571 21.8994 11.657 23.6991 12.6567 25.0988C13.1566 25.7987 13.7564 26.3986 14.5562 26.9985C15.256 27.4984 16.0558 27.8983 16.9555 28.1983C17.7553 28.4982 18.655 28.6982 19.5548 28.6982C20.0547 28.6982 20.4545 28.7982 20.9544 28.7982C21.0544 28.7982 21.1544 28.7982 21.2543 28.7982H21.4543H21.6542H21.8542H22.0541C22.1541 28.7982 22.254 28.7982 22.354 28.7982C23.2538 28.6982 24.0535 28.4982 24.9533 28.0983C25.7531 27.7984 26.5529 27.3984 27.3526 26.8985C28.8522 25.8987 30.0519 24.5989 30.8517 23.0992C31.2516 22.3993 31.5515 21.5994 31.7514 20.7996C31.8514 20.3996 31.9514 19.9997 31.9514 19.5998C31.9514 19.3998 31.9514 19.1998 31.9514 18.9999C31.9514 18.8999 31.9514 18.7999 31.9514 18.6999V18.4C31.9514 17.3002 32.8511 16.3003 33.9508 16.3003C35.0505 16.3003 36.0502 17.2002 36.0502 18.3C35.8503 18.2 35.8503 18.2 35.8503 18.3Z" fill="white"/>
<path d="M18.9551 5.50225C11.8571 5.50225 6.15865 11.3013 6.15865 18.3001C6.15865 25.2988 11.8571 31.0979 18.9551 31.0979C26.0531 31.0979 31.7516 25.3988 31.7516 18.3001C31.7516 11.2013 25.9532 5.50225 18.9551 5.50225ZM18.9551 35.1971C9.65768 35.1971 2.05978 27.5985 2.05978 18.3001C2.05978 9.00165 9.65768 1.40295 18.9551 1.40295C28.2525 1.40295 35.8504 9.00165 35.8504 18.3001C35.8504 27.5985 28.2525 35.1971 18.9551 35.1971Z" fill="white"/>
</svg>
