<svg width="37" height="37" viewBox="0 0 37 37" fill="none" xmlns="http://www.w3.org/2000/svg">
<rect width="37" height="37" rx="18.5" fill="#704B25"/>
<g clip-path="url(#clip0_6_236)">
<g clip-path="url(#clip1_6_236)">
<g clip-path="url(#clip2_6_236)">
<path d="M26.5708 11.802L10.0774 18.1125C9.67053 18.2684 9.67453 18.8392 10.0824 18.9911L14.1008 20.4785L15.6561 25.4406C15.7561 25.7584 16.1469 25.8754 16.4078 25.6645L18.648 23.8532C18.8829 23.6633 19.2167 23.6543 19.4626 23.8302L23.503 26.739C23.7809 26.939 24.1748 26.788 24.2447 26.4551L27.2045 12.3358C27.2815 11.9719 26.9207 11.668 26.5708 11.802ZM23.425 15.1047L16.9436 21.0803C16.7157 21.2902 16.5688 21.5721 16.5268 21.878L16.3059 23.5003C16.2759 23.7172 15.97 23.7382 15.909 23.5283L15.0604 20.5695C14.9634 20.2316 15.1054 19.8708 15.4062 19.6868L23.2601 14.8898C23.4011 14.8038 23.547 14.9927 23.425 15.1047Z" fill="white"/>
</g>
</g>
</g>
<defs>
<clipPath id="clip0_6_236">
<rect width="17.45" height="15.06" fill="white" transform="translate(9.77002 11.77)"/>
</clipPath>
<clipPath id="clip1_6_236">
<rect width="17.45" height="15.06" fill="white" transform="translate(9.77002 11.77)"/>
</clipPath>
<clipPath id="clip2_6_236">
<rect width="17.4411" height="15.06" fill="white" transform="translate(9.77448 11.77)"/>
</clipPath>
</defs>
</svg>
